#!OML:ASF E:/inclinewalkrobotboard/Project1/Captureday1/Session1/subject1.ASF
:FULLY-SPECIFIED
:DEGREES
201
root 0 0 0 -1.2483988674908064 -5.6699756842957445 -8.2614783309153
lowerback 9.253465653720488 2.712376583369431 6.6464728876451895
upperback -0.30521085435222384 4.378472358842846 1.1554551074121375
thorax -5.401900378099975 2.002333394414743 -3.127097567619092
lowerneck -15.101741815880352 -3.146824701645833 -1.0804198961389977
upperneck 13.510428856865705 -4.391064414183386 1.6749438385906577
head 6.655270276528103 -2.0432188866961876 0.2655380917403735
rclavicle -4.991946588113431E-15 3.4510485534340204E-16
rhumerus -28.596953788444015 -19.281723921507673 -82.49822487653869
rradius 25.48811910481023
rwrist 17.347977634243673
rhand -20.39303520627773 30.088843584452704
rfingers 7.125019999999993
rthumb 5.985788737657241 -0.0694048848880442
lclavicle -5.439175990157596E-15 -3.299300703787433E-17
lhumerus -35.40813217043112 8.761940545256257 80.0703385055715
lradius 15.626080561145727
lwrist -2.3736500643222764
lhand -26.789063409521766 26.800474560055047
lfingers 7.12501999999998
lthumb -0.26744659291846506 56.81912922661607
rfemur -6.561964636404184 5.616258632941983 28.592917661095058
rtibia 37.37462286638451
rfoot -9.621532204593752 -5.1708513433752845
rtoes 5.4803090585580065
lfemur -21.445748872155185 1.3397157334899408 -15.870253171439808
ltibia 40.78536137861014
lfoot -0.11313719626687302 -5.623772332831894
ltoes -4.813403533605861
202
root 0 0 0 -1.4264762844140348 -5.803736050522112 -8.148277652306477
lowerback 9.00049725822756 2.7311767685948998 6.573951416001111
upperback -0.1861725235011068 4.385515339277191 1.1438649904750542
thorax -5.124597043401127 2.011288746721574 -3.0855493450501705
lowerneck -14.722676105483997 -3.1607642456624485 -1.1955008045422906
upperneck 13.079578265324177 -4.410728313013211 1.9871856280985745
head 6.4187346047548095 -2.0489816676338597 0.39380834244572477
rclavicle -4.855264292497919E-15 1.0244872781496499E-16
rhumerus -29.192065928570173 -18.891992799593297 -83.03761158052683
rradius 24.316134021654143
rwrist 17.15211609904239
rhand -20.133940719486368 30.322427627874426
rfingers 7.125019999999994
rthumb 6.234980558853069 0.17190816293998523
lclavicle -5.5284974230080334E-15 -3.3576693309201555E-16
lhumerus -35.294301232204866 8.708435578247904 80.17254513329725
lradius 15.596114415295844
lwrist -2.3608306143442737
lhand -26.804831960573274 26.83787503790787
lfingers 7.125019999999981
lthumb -0.28145138585082474 56.85990805729862
rfemur -8.00290555675227 5.445062666181344 29.046448914724966
rtibia 40.75604798100739
rfoot -8.805830380492615 -5.318943075439687
rtoes 6.379385971206405
lfemur -21.376344954909857 1.3824576399623671 -16.05643471101317
ltibia 41.0704224709602
lfoot 0.2224066438988359 -5.9539199200884365
ltoes -3.927527276195928
203
root 0 0 0 -1.5194131623342713 -5.911211115645569 -8.056863552877426
lowerback 8.823143903716588 2.7602496100483527 6.508410154443971
upperback -0.11343187933487175 4.408296255274113 1.132661218476008
thorax -4.940552476819198 2.028025286489253 -3.0529278533615534
lowerneck -14.38712348921414 -3.1711279890721573 -1.2827131418743671
upperneck 12.876150146025273 -4.431432692443748 2.241941773497552
head 6.281489610496656 -2.0538242059766736 0.4960291654469702
rclavicle -4.829666017536253E-15 -1.1222204730470193E-16
rhumerus -29.555237893406506 -18.37933037412453 -83.42068373951925
rradius 23.733576926919234
rwrist 16.859731150482627
rhand -19.96470541748628 30.508049185512682
rfingers 7.125019999999995
rthumb 6.396863912351473 0.36499913398711215
lclavicle -5.646525519097147E-15 -5.2884739633181235E-16
lhumerus -35.206966187080155 8.642220747918447 80.21879939460332
lradius 15.625600469358773
lwrist -2.317197749358202
lhand -26.828055853601132 26.867254527194113
lfingers 7.1250199999999815
lthumb -0.30349075434230866 56.89155646307506
rfemur -8.571784311457053 5.515769656352399 29.381082878090723
rtibia 41.33154769662475
rfoot -8.977080042946051 -5.532626063767063
rtoes 6.397219188988532
lfemur -21.396545343841854 1.28151688801728 -16.031517254217647
ltibia 40.86817964824825
lfoot 0.07577471187713414 -5.788553078479211
ltoes -4.018328602402665
204
root 0 0 0 -1.6084045915357814 -6.01897912821317 -7.930935747304936
lowerback 8.660630154659668 2.8056119980948604 6.409052225291565
upperback -0.06788625633972865 4.448242794077107 1.1100433645646475
thorax -4.794052589727761 2.054915228291985 -3.0150720987046755
lowerneck -14.057939889255556 -3.193082762212074 -1.379456400434702
upperneck 12.7742107758913 -4.474898981322557 2.5212303925683295
head 6.187318483874118 -2.0666583090139214 0.604898865742942
rclavicle -4.750396569279051E-15 -3.8265727415333915E-16
rhumerus -29.90305003882098 -17.866679370414097 -83.75892506271099
rradius 23.142162497383644
rwrist 16.44693823805564
rhand -19.773748174132116 30.660671515885532
rfingers 7.125019999999996
rthumb 6.579564429190496 0.5299764100966158
lclavicle -5.6649525961456124E-15 -7.086092597952979E-16
lhumerus -35.14266714083881 8.591160182075289 80.19036647829157
lradius 15.683661988852432
lwrist -2.2468126193194213
lhand -26.8732691971493 26.9128575466405
lfingers 7.125019999999982
lthumb -0.3470062083548422 56.94232934976926
rfemur -8.815878734181128 5.634233909355753 29.548941810734625
rtibia 40.871015530989936
rfoot -9.39533843246154 -5.731338835058256
rtoes 6.102798165024573
lfemur -21.343263773303807 1.1249161784420858 -16.012641207878946
ltibia 40.47750993463149
lfoot -0.22641773811385768 -5.499486599593064
ltoes -4.255332003442344
